<svg width="200" height="44.83" fill="none" version="1.1" viewBox="0 0 200 44.83" xmlns="http://www.w3.org/2000/svg">
 <g fill="#fff" stroke-width=".13333">
  <path d="m22.241 20.85c6.0657 0 7.4335-3.0381 7.4335-5.9572h-20.754c-4.0141 0-8.9202 3.068-8.9202 8.9357 0 5.8679 4.9953 8.9359 8.9202 8.9359h11.894c1.1151 0 2.9733 0.87867 2.9733 2.9785 0 2.0999-1.9177 2.9787-2.9733 2.9787h-20.814c0 3.3211 2.9139 5.9571 6.5414 5.9571h14.272c4.3412 0 8.9201-3.336 8.9201-8.9357 0-5.5997-4.46-8.9357-8.9201-8.9357h-11.894c-1.3529 0-2.9734-1.1169-2.9734-2.9787 0-1.8616 1.561-2.9785 2.9734-2.9785z"/>
  <path d="m33.005 6.5529c0-5.3019 5.9468-6.5529 5.9468-6.5529v17.901s3.3449-3.0084 8.9201-3.0084c6.8833-0.22333 14.867 5.6743 14.867 14.893v14.893h-5.9468v-13.791c0-7.372-5.3224-9.8592-8.9201-9.8592-2.4828 0-8.9201 1.4-8.9201 11.11v12.54h-5.9468z"/>
  <path d="m66.009 29.786c0-7.8188 6.2591-14.893 14.867-14.893 8.608 0 14.867 7.1337 14.867 14.893v14.893s-6.0287-0.4616-5.9468-6.3592c0.0199-1.4297 0-3.9467 0-8.5337 0-4.5869-3.7168-8.9357-8.9203-8.9357-5.2033 0-8.9201 4.3488-8.9201 8.9357 0 4.5871 3.6573 8.9359 8.9201 8.9359 4.4899 0 6.6159 3.9912 6.6307 5.9571h-6.6307c-8.6673 0-14.867-7.0741-14.867-14.893z"/>
  <path d="m128.75 6.5529c0-5.9572-5.9468-6.5529-5.9468-6.5529v29.786c0 5.436-4.46 8.9359-8.9201 8.9359s-8.9201-3.4701-8.9201-8.9359c0-4.0461 3.2856-8.9357 8.8904-8.9357s6.0657-4.6615 6.0657-4.6615-2.2895-1.2957-6.5563-1.2957c-7.5079 0-14.347 6.5529-14.347 14.893 0 7.1337 5.6643 14.893 14.867 14.893s14.867-7.7293 14.867-14.893z"/>
  <path d="m154.01 24.468c0.88934 1.2051 1.792 2.9991 1.792 5.3179 0 5.2871-4.46 8.9359-8.92 8.9359s-8.92-3.6787-8.92-8.9359c0-4.0461 3.2853-8.9357 8.8907-8.9357 5.604 0 6.1253-4.6168 6.1253-4.6168s-2.1853-1.3404-6.616-1.3404c-6.1107 0-14.347 5.2871-14.347 14.893 0 7.1337 5.6641 14.893 14.867 14.893 9.2027 0 14.867-7.7293 14.867-14.893 0-4.7361-2.1933-8.0885-3.768-9.8848z" clip-rule="evenodd" fill-rule="evenodd"/>
  <path d="m154.01 24.468-0.112-0.0977-0.0787 0.0901 0.072 0.0961zm-1.032-8.2347 0.148 0.0167 0.0107-0.0941-0.0813-0.0496zm5.0027 3.6677 0.112-0.0983-0.112-0.128-0.112 0.1284zm-4.0893 4.6555c0.876 1.1875 1.7627 2.9511 1.7627 5.2293h0.29734c0-2.3593-0.91867-4.1836-1.8213-5.4064zm1.7627 5.2293c0 5.1961-4.3853 8.7869-8.772 8.7869v0.29787c4.5333 0 9.0693-3.7069 9.0693-9.0848zm-8.772 8.7869c-4.3867 0-8.772-3.6203-8.772-8.7869h-0.29733c0 5.3479 4.536 9.0848 9.0693 9.0848zm-8.772-8.7869c0-3.982 3.236-8.7868 8.7427-8.7868v-0.29787c-5.704 0-9.04 4.9744-9.04 9.0847zm8.7427-8.7868c2.8507 0 4.4267-1.1779 5.284-2.3703 0.428-0.59293 0.67333-1.1853 0.81333-1.6293 0.0707-0.22214 0.11467-0.40774 0.14-0.53854 0.0133-0.0655 0.0213-0.11733 0.0267-0.1532 3e-3 -0.0179 5e-3 -0.0319 7e-3 -0.0416 0-5e-3 1e-3 -9e-3 1e-3 -0.0113v-3e-3c0-4e-4 1e-3 -8e-4 1e-3 -1e-3v-2.6e-4c0-1.4e-4 -1e-3 -2.7e-4 -0.148-0.0169-0.148-0.0167-0.148-0.0168-0.148-0.0168v2.7e-4 2e-3c0 2e-3 -1e-3 5e-3 -1e-3 9e-3 -1e-3 8e-3 -3e-3 0.0196-5e-3 0.0355-5e-3 0.0317-0.0133 0.0792-0.0253 0.14-0.024 0.1216-0.0653 0.29667-0.13066 0.50734-0.13334 0.4216-0.36667 0.98346-0.77067 1.5448-0.804 1.116-2.2907 2.2465-5.044 2.2465zm6.1253-4.7657 0.0773-0.12706v-1.4e-4c0-1.3e-4 -1e-3 -2.6e-4 -1e-3 -4e-4 0-1.3e-4 0-5.3e-4 -1e-3 -9.3e-4 -1e-3 -8e-4 -3e-3 -2e-3 -5e-3 -3e-3 -5e-3 -3e-3 -0.012-7e-3 -0.0213-0.0123-0.0187-0.0105-0.0453-0.0256-0.0813-0.0447-0.0707-0.038-0.176-0.0917-0.316-0.156-0.28-0.12827-0.69733-0.29813-1.2547-0.46773-1.1133-0.3392-2.7813-0.67667-5.012-0.67667v0.29787c2.2 0 3.8387 0.3328 4.9253 0.66373 0.544 0.1656 0.94933 0.33067 1.2173 0.45373 0.13467 0.0615 0.23467 0.11254 0.3 0.14774 0.0333 0.0176 0.0573 0.0313 0.0733 0.0404 8e-3 5e-3 0.0133 8e-3 0.0173 0.0101 1e-3 1e-3 3e-3 2e-3 4e-3 2e-3v5.3e-4s0-1.3e-4 0.0787-0.12707zm-6.616-1.4893c-6.176 0-14.495 5.3381-14.495 15.042h0.29733c0-9.5081 8.1528-14.744 14.198-14.744zm-14.495 15.042c0 7.2023 5.7181 15.042 15.015 15.042v-0.29786c-9.108 0-14.718-7.6788-14.718-14.744zm15.015 15.042c9.2973 0 15.016-7.8099 15.016-15.042h-0.29733c0 7.0951-5.6107 14.744-14.719 14.744zm15.016-15.042c0-4.7845-2.2173-8.1707-3.8053-9.9831l-0.224 0.19653c1.56 1.78 3.732 5.0989 3.732 9.7865zm-4.0293-9.9827-3.9707 4.5671 0.224 0.1956 3.9707-4.5669z"/>
  <path d="m165.65 11.047-4.472 5.1456 10.976 28.308 8.148-21.029 8.176 21.029 11.359-29.428s-5.828-1.5936-7.8947 3.6487l-3.4933 9.0699-5.0107-12.927h-6.3333l-4.9947 12.927z" clip-rule="evenodd" fill-rule="evenodd"/>
  <path d="m165.65 11.047 0.112-0.043-0.072-0.18432-0.12934 0.14903zm-4.472 5.1456-0.0907-0.0783-0.0467 0.0543 0.0253 0.0671zm10.976 28.308-0.11067 0.0432 0.11067 0.286 0.112-0.286zm8.148-21.029 0.11066-0.0433-0.11066-0.28547-0.11067 0.2856zm8.176 21.029-0.11067 0.0432 0.112 0.28627 0.11067-0.28653zm11.359-29.428 0.11067 0.0429 0.048-0.1232-0.12667-0.0348zm-7.8947 3.6487-0.11067-0.0437v9.3e-4zm-3.4933 9.0699-0.11066 0.0431 0.11066 0.28707 0.11067-0.2872zm-5.0107-12.927 0.112-0.0432-0.0293-0.076h-0.0827zm-6.3333 0v-0.1192h-0.0813l-0.0293 0.0761zm-4.9947 12.927-0.11067 0.0429 0.11067 0.28733 0.11066-0.28733zm-6.5493-16.822-4.4733 5.1456 0.18 0.1564 4.4733-5.1455zm-4.4947 5.2669 10.977 28.308 0.22267-0.0864-10.977-28.308zm11.2 28.308 8.1467-21.029-0.22133-0.0863-8.148 21.029zm7.9253-21.029 8.176 21.029 0.22267-0.0864-8.1773-21.029zm8.3987 21.029 11.357-29.428-0.22133-0.086-11.359 29.429zm11.247-29.471 0.032-0.11506h-1e-3c0-1.4e-4 0-2.7e-4 -1e-3 -2.7e-4 0-2.7e-4 -1e-3 -6.7e-4 -3e-3 -1e-3 -3e-3 -8e-4 -8e-3 -2e-3 -0.0133-3e-3 -0.012-3e-3 -0.0293-7e-3 -0.0507-0.0127-0.0453-0.0107-0.10933-0.0256-0.19333-0.0425-0.16667-0.0339-0.40534-0.0763-0.69867-0.1104-0.58533-0.0684-1.3893-0.1044-2.26 0.0261-1.7467 0.26147-3.7627 1.1939-4.816 3.8643l0.22133 0.0875c1.0147-2.5719 2.9453-3.4637 4.6293-3.7161 0.844-0.1264 1.6267-0.0917 2.1987-0.0251 0.28534 0.0333 0.51734 0.0745 0.67734 0.1072 0.0813 0.0164 0.14266 0.0307 0.18533 0.0408 0.02 5e-3 0.0373 9e-3 0.0467 0.0117 5e-3 1e-3 9e-3 2e-3 0.012 3e-3 1e-3 2.7e-4 3e-3 5.4e-4 3e-3 6.7e-4v1.3e-4l1e-3 1.4e-4 0.0307-0.11494zm-8.0053 3.6059-3.4933 9.0697 0.22133 0.0859 3.4947-9.0699zm-3.272 9.0695-5.0093-12.927-0.22267 0.0863 5.0107 12.927zm-5.1213-13.003h-6.3333v0.23827h6.3333zm-6.444 0.0761-4.9947 12.927 0.22133 0.086 4.996-12.927zm-4.7733 12.927-6.4587-16.744-0.22267 0.0859 6.46 16.744z"/>
 </g>
</svg>
