<svg width="200" height="44.83" fill="none" version="1.1" viewBox="0 0 200 44.83" xmlns="http://www.w3.org/2000/svg">
 <g transform="scale(.13333)" fill="url(#paint0_radial_2_49)" filter="url(#filter0_i_2_49)">
  <path d="m166.81 156.38c45.493 0 55.751-22.786 55.751-44.679h-155.66c-30.106 0-66.901 23.01-66.901 67.018 0 44.009 37.465 67.019 66.901 67.019h89.202c8.363 0 22.3 6.59 22.3 22.339s-14.383 22.34-22.3 22.34h-156.1c0 24.908 21.854 44.678 49.061 44.678h107.04c32.559 0 66.901-25.02 66.901-67.018s-33.45-67.018-66.901-67.018h-89.202c-10.147 0-22.3-8.377-22.3-22.34 0-13.962 11.708-22.339 22.3-22.339z"/>
  <path d="m247.54 49.147c0-39.764 44.601-49.147 44.601-49.147v134.26s25.087-22.563 66.901-22.563c51.625-1.675 111.5 42.557 111.5 111.7v111.7h-44.601v-103.43c0-55.29-39.918-73.944-66.901-73.944-18.621 0-66.901 10.5-66.901 83.326v94.049h-44.601z"/>
  <path d="m495.07 223.39c0-58.641 46.943-111.7 111.5-111.7 64.56 0 111.5 53.503 111.5 111.7v111.7s-45.215-3.462-44.601-47.694c0.149-10.723 0-29.6 0-64.003 0-34.402-27.876-67.018-66.902-67.018-39.025 0-66.901 32.616-66.901 67.018 0 34.403 27.43 67.019 66.901 67.019 33.674 0 49.619 29.934 49.73 44.678h-49.73c-65.005 0-111.5-53.056-111.5-111.7z"/>
  <path d="m965.61 49.147c0-44.679-44.601-49.147-44.601-49.147v223.39c0 40.77-33.45 67.019-66.901 67.019s-66.901-26.026-66.901-67.019c0-30.346 24.642-67.018 66.678-67.018s45.493-34.961 45.493-34.961-17.171-9.718-49.172-9.718c-56.309 0-107.6 49.147-107.6 111.7 0 53.503 42.482 111.7 111.5 111.7s111.5-57.97 111.5-111.7z"/>
  <path d="m1155.1 183.51c6.67 9.038 13.44 22.493 13.44 39.884 0 39.653-33.45 67.019-66.9 67.019s-66.9-27.59-66.9-67.019c0-30.346 24.64-67.018 66.68-67.018 42.03 0 45.94-34.626 45.94-34.626s-16.39-10.053-49.62-10.053c-45.83 0-107.6 39.653-107.6 111.7 0 53.503 42.481 111.7 111.5 111.7s111.5-57.97 111.5-111.7c0-35.521-16.45-60.664-28.26-74.136z" clip-rule="evenodd" fill-rule="evenodd"/>
  <path d="m1155.1 183.51-0.84-0.733-0.59 0.676 0.54 0.721zm-7.74-61.76 1.11 0.125 0.08-0.706-0.61-0.372zm37.52 27.508 0.84-0.737-0.85-0.96-0.83 0.963zm-30.67 34.916c6.57 8.906 13.22 22.133 13.22 39.22h2.23c0-17.695-6.89-31.377-13.66-40.548zm13.22 39.22c0 38.971-32.89 65.902-65.79 65.902v2.234c34 0 68.02-27.802 68.02-68.136zm-65.79 65.902c-32.9 0-65.79-27.152-65.79-65.902h-2.23c0 40.109 34.02 68.136 68.02 68.136zm-65.79-65.902c0-29.865 24.27-65.901 65.57-65.901v-2.234c-42.78 0-67.8 37.308-67.8 68.135zm65.57-65.901c21.38 0 33.2-8.834 39.63-17.777 3.21-4.447 5.05-8.89 6.1-12.22 0.53-1.666 0.86-3.058 1.05-4.039 0.1-0.491 0.16-0.88 0.2-1.149 0.02-0.134 0.04-0.239 0.05-0.312 0-0.037 0.01-0.065 0.01-0.085v-0.024c0-3e-3 0.01-6e-3 0.01-8e-3v-2e-3c0-1e-3 -0.01-2e-3 -1.11-0.127-1.11-0.125-1.11-0.126-1.11-0.126v2e-3 0.013c0 0.013-0.01 0.034-0.01 0.064-0.01 0.058-0.02 0.147-0.04 0.266-0.04 0.238-0.1 0.594-0.19 1.05-0.18 0.912-0.49 2.225-0.98 3.805-1 3.162-2.75 7.376-5.78 11.586-6.03 8.37-17.18 16.849-37.83 16.849zm45.94-35.743c0.58-0.953 0.58-0.953 0.58-0.953v-1e-3c0-1e-3 -0.01-2e-3 -0.01-3e-3s0-4e-3 -0.01-7e-3c-0.01-6e-3 -0.02-0.015-0.04-0.026-0.04-0.021-0.09-0.052-0.16-0.092-0.14-0.079-0.34-0.192-0.61-0.335-0.53-0.285-1.32-0.688-2.37-1.17-2.1-0.962-5.23-2.236-9.41-3.508-8.35-2.544-20.86-5.075-37.59-5.075v2.234c16.5 0 28.79 2.496 36.94 4.978 4.08 1.242 7.12 2.48 9.13 3.403 1.01 0.461 1.76 0.844 2.25 1.108 0.25 0.132 0.43 0.235 0.55 0.303 0.06 0.034 0.1 0.06 0.13 0.076 0.01 8e-3 0.02 0.014 0.03 0.017v4e-3s0-1e-3 0.59-0.953zm-49.62-11.17c-46.32 0-108.72 40.036-108.72 112.81h2.23c0-71.311 61.146-110.58 106.49-110.58zm-108.72 112.81c0 54.017 42.886 112.81 112.62 112.81v-2.234c-68.31 0-110.39-57.591-110.39-110.58zm112.62 112.81c69.73 0 112.62-58.574 112.62-112.81h-2.23c0 53.213-42.08 110.58-110.39 110.58zm112.62-112.81c0-35.884-16.63-61.28-28.54-74.873l-1.68 1.474c11.7 13.35 27.99 38.242 27.99 73.399zm-30.22-74.87-29.78 34.253 1.68 1.467 29.78-34.252z"/>
  <path d="m1242.4 82.85-33.54 38.592 82.32 212.31 61.11-157.72 61.32 157.72 85.19-220.71s-43.71-11.952-59.21 27.365l-26.2 68.024-37.58-96.953h-47.5l-37.46 96.953z" clip-rule="evenodd" fill-rule="evenodd"/>
  <path d="m1242.4 82.85 0.84-0.3221-0.54-1.3824-0.97 1.1177zm-33.54 38.592-0.68-0.587-0.35 0.407 0.19 0.503zm82.32 212.31-0.83 0.324 0.83 2.145 0.84-2.145zm61.11-157.72 0.83-0.325-0.83-2.141-0.83 2.142zm61.32 157.72-0.83 0.324 0.84 2.147 0.83-2.149zm85.19-220.71 0.83 0.322 0.36-0.924-0.95-0.261zm-59.21 27.365-0.83-0.328v7e-3zm-26.2 68.024-0.83 0.323 0.83 2.153 0.83-2.154zm-37.58-96.953 0.84-0.324-0.22-0.57h-0.62zm-47.5 0v-0.894h-0.61l-0.22 0.571zm-37.46 96.953-0.83 0.322 0.83 2.155 0.83-2.155zm-49.12-126.16-33.55 38.592 1.35 1.173 33.55-38.591zm-33.71 39.502 82.33 212.31 1.67-0.648-82.33-212.31zm84 212.31 61.1-157.72-1.66-0.647-61.11 157.72zm59.44-157.72 61.32 157.72 1.67-0.648-61.33-157.72zm62.99 157.71 85.18-220.71-1.66-0.645-85.19 220.71zm84.35-221.04c0.24-0.863 0.24-0.863 0.24-0.863h-0.01c0-1e-3 0-2e-3 -0.01-2e-3 0-2e-3 -0.01-5e-3 -0.02-8e-3 -0.02-6e-3 -0.06-0.015-0.1-0.026-0.09-0.023-0.22-0.055-0.38-0.095-0.34-0.08-0.82-0.192-1.45-0.319-1.25-0.254-3.04-0.572-5.24-0.828-4.39-0.513-10.42-0.783-16.95 0.196-13.1 1.961-28.22 8.954-36.12 28.982l1.66 0.656c7.61-19.289 22.09-25.978 34.72-27.871 6.33-0.948 12.2-0.688 16.49-0.188 2.14 0.25 3.88 0.559 5.08 0.804 0.61 0.123 1.07 0.23 1.39 0.306 0.15 0.038 0.28 0.068 0.35 0.088 0.04 0.01 0.07 0.018 0.09 0.023 0.01 2e-3 0.02 4e-3 0.02 5e-3v1e-3l0.01 1e-3 0.23-0.862zm-60.04 27.044-26.2 68.023 1.66 0.644 26.21-68.024zm-24.54 68.021-37.57-96.953-1.67 0.647 37.58 96.953zm-38.41-97.523h-47.5v1.787h47.5zm-48.33 0.571-37.46 96.953 1.66 0.645 37.47-96.953zm-35.8 96.954-48.44-125.58-1.67 0.6443 48.45 125.58z"/>
 </g>
 <defs>
  <filter id="filter0_i_2_49" x="0" y="0" width="1500" height="336.22" color-interpolation-filters="sRGB" filterUnits="userSpaceOnUse">
   <feFlood flood-opacity="0" result="BackgroundImageFix"/>
   <feBlend in="SourceGraphic" in2="BackgroundImageFix" result="shape"/>
   <feColorMatrix in="SourceAlpha" result="hardAlpha" values="0 0 0 0 0 0 0 0 0 0 0 0 0 0 0 0 0 0 127 0"/>
   <feOffset dy="5"/>
   <feComposite in2="hardAlpha" k2="-1" k3="1" operator="arithmetic"/>
   <feColorMatrix values="0 0 0 0 0 0 0 0 0 0 0 0 0 0 0 0 0 0 0.2 0"/>
   <feBlend in2="shape" result="effect1_innerShadow_2_49"/>
  </filter>
  <radialGradient id="paint0_radial_2_49" cx="0" cy="0" r="1" gradientTransform="matrix(1406 -377.24 233 868.42 0 336.22)" gradientUnits="userSpaceOnUse">
   <stop stop-color="#34BAF4" offset="0"/>
   <stop stop-color="#3D46CC" offset=".38904"/>
   <stop stop-color="#3F2DAC" offset="1"/>
  </radialGradient>
 </defs>
</svg>
